v -0.308765 0.000488 0.495029
v -0.308765 0.000488 0.495029
v -0.308765 0.000488 0.495029
v -0.308765 0.556253 0.495029
v -0.308765 0.556253 0.495029
v -0.308765 0.556253 0.495029
v -0.308765 0.556253 0.495029
v -0.000007 0.000488 0.495029
v -0.000007 0.000488 0.495029
v -0.000007 0.807336 0.495029
v -0.000007 0.807336 0.495029
v -0.000007 0.807336 0.495029
v 0.308751 0.000488 0.495029
v 0.308751 0.000488 0.495029
v 0.308751 0.000488 0.495029
v 0.308751 0.556253 0.495029
v 0.308751 0.556253 0.495029
v 0.308751 0.556253 0.495029
v 0.308751 0.556253 0.495029
v 0.308751 0.000488 -0.492997
v 0.308751 0.000488 -0.492997
v 0.308751 0.000488 -0.492997
v 0.308751 0.556253 -0.492997
v 0.308751 0.556253 -0.492997
v 0.308751 0.556253 -0.492997
v 0.308751 0.556253 -0.492997
v -0.000007 0.000488 -0.492997
v -0.000007 0.000488 -0.492997
v -0.000007 0.807336 -0.492997
v -0.000007 0.807336 -0.492997
v -0.000007 0.807336 -0.492997
v -0.308765 0.000488 -0.492997
v -0.308765 0.000488 -0.492997
v -0.308765 0.000488 -0.492997
v -0.308765 0.556253 -0.492997
v -0.308765 0.556253 -0.492997
v -0.308765 0.556253 -0.492997
v -0.308765 0.556253 -0.492997
v 0.273989 0.568603 -0.492997
v -0.000007 0.791418 -0.492997
v -0.274003 0.568603 -0.492997
v 0.308751 0.512679 -0.492997
v 0.308751 0.512679 -0.492997
v -0.308765 0.515152 -0.492997
v -0.308765 0.515152 -0.492997
v -0.308765 0.515166 0.495029
v -0.308765 0.515166 0.495029
v 0.308751 0.511830 0.495029
v 0.308751 0.511830 0.495029
v 0.273989 0.568603 -0.486822
v -0.000007 0.791418 -0.486822
v -0.274003 0.568603 -0.486822
v -0.308765 0.556253 0.498734
v 0.308751 0.556253 0.498734
v -0.308765 0.515166 0.498734
v 0.308751 0.511830 0.498734
v -0.312470 0.556253 0.495029
v -0.312470 0.556253 -0.492997
v -0.312470 0.515152 -0.492997
v -0.312470 0.515166 0.495029
v 0.312456 0.556253 0.495029
v 0.312456 0.556253 -0.492997
v 0.312456 0.512679 -0.492997
v 0.312456 0.511830 0.495029
v 0.308751 0.556253 -0.496702
v -0.308765 0.556253 -0.496702
v 0.308751 0.512679 -0.496702
v -0.308765 0.515152 -0.496702
vt 0.464726 0.783623
vt 0.464726 0.918149
vt 0.040754 0.918149
vt 0.040754 0.783623
vt 0.807899 0.623019
vt 0.542917 0.621694
vt 0.542917 0.347273
vt 0.807899 0.347273
vt 0.847769 0.298440
vt 0.423797 0.298440
vt 0.423797 0.274639
vt 0.847769 0.275094
vt 0.994557 0.988498
vt 0.862066 0.988498
vt 0.862066 0.459134
vt 0.994557 0.459134
vt 0.994059 0.530719
vt 0.861568 0.530719
vt 0.861568 0.001355
vt 0.994059 0.001355
vt 0.423710 0.276429
vt -0.000261 0.276422
vt -0.000261 0.000675
vt 0.423710 0.000675
vt 0.040555 0.918280
vt 0.040555 0.783754
vt 0.464526 0.783754
vt 0.464526 0.918280
vt 0.541532 0.686330
vt 0.806514 0.686330
vt 0.806514 0.960296
vt 0.541532 0.962083
vt 0.362907 0.489466
vt 0.230416 0.623991
vt 0.097925 0.489466
vt 0.348407 0.495292
vt 0.231150 0.616133
vt 0.113893 0.495292
vt 0.098659 0.490136
vt 0.363641 0.490136
vt 0.231150 0.624661
vt 0.423797 0.000673
vt 0.847769 0.000673
vt 0.806514 0.984097
vt 0.541532 0.984097
vt 0.807899 0.645040
vt 0.542917 0.645040
vt 0.423710 0.298442
vt -0.000261 0.298442
vn 0.630900 0.775800 0.000000
vn -0.000000 0.000000 -1.000000
vn 1.000000 0.000000 0.000000
vn 0.000000 -1.000000 0.000000
vn -1.000000 0.000000 0.000000
vn -0.630900 0.775800 0.000000
vn 0.000000 0.000000 1.000000
vn 0.000000 1.000000 0.000000
vn 0.630900 -0.775800 0.000000
vn -0.630900 -0.775800 0.000000
vn -0.005400 -1.000000 0.000000
vn 0.000000 -1.000000 -0.000900
vn -0.004000 -1.000000 0.000000
f 26/1/1 31/2/1 12/3/1
f 19/4/1 26/1/1 12/3/1
f 44/5/2 42/6/2 22/7/2
f 34/8/2 44/5/2 22/7/2
f 62/9/3 61/10/3 64/11/3
f 63/12/3 62/9/3 64/11/3
f 9/13/4 3/14/4 33/15/4
f 28/16/4 9/13/4 33/15/4
f 15/17/4 8/18/4 27/19/4
f 21/20/4 15/17/4 27/19/4
f 46/21/5 45/22/5 32/23/5
f 2/24/5 46/21/5 32/23/5
f 30/25/6 38/26/6 7/27/6
f 11/28/6 30/25/6 7/27/6
f 1/29/7 14/30/7 49/31/7
f 47/32/7 1/29/7 49/31/7
f 18/33/7 10/34/7 6/35/7
f 52/36/2 51/37/2 50/38/2
f 41/36/2 39/38/2 25/39/2
f 37/40/2 41/36/2 25/39/2
f 40/37/2 41/36/2 37/40/2
f 29/41/2 40/37/2 37/40/2
f 39/38/2 40/37/2 29/41/2
f 25/39/2 39/38/2 29/41/2
f 43/12/3 48/11/3 13/42/3
f 20/43/3 43/12/3 13/42/3
f 54/44/7 53/45/7 55/32/7
f 56/31/7 54/44/7 55/32/7
f 66/46/2 65/47/2 67/6/2
f 68/5/2 66/46/2 67/6/2
f 57/48/5 58/49/5 59/22/5
f 60/21/5 57/48/5 59/22/5
f 52/36/8 50/38/8 39/38/8
f 41/36/8 52/36/8 39/38/8
f 51/37/9 52/36/9 41/36/9
f 40/37/9 51/37/9 41/36/9
f 50/38/10 51/37/10 40/37/10
f 39/38/10 50/38/10 40/37/10
f 56/31/11 55/32/11 47/32/11
f 49/31/11 56/31/11 47/32/11
f 54/44/3 56/31/3 49/31/3
f 17/44/3 54/44/3 49/31/3
f 53/45/8 54/44/8 17/44/8
f 5/45/8 53/45/8 17/44/8
f 55/32/5 53/45/5 5/45/5
f 47/32/5 55/32/5 5/45/5
f 60/21/4 59/22/4 45/22/4
f 46/21/4 60/21/4 45/22/4
f 57/48/7 60/21/7 46/21/7
f 4/48/7 57/48/7 46/21/7
f 58/49/8 57/48/8 4/48/8
f 36/49/8 58/49/8 4/48/8
f 59/22/2 58/49/2 36/49/2
f 45/22/2 59/22/2 36/49/2
f 63/12/12 64/11/12 48/11/12
f 43/12/12 63/12/12 48/11/12
f 62/9/2 63/12/2 43/12/2
f 24/9/2 62/9/2 43/12/2
f 61/10/8 62/9/8 24/9/8
f 16/10/8 61/10/8 24/9/8
f 64/11/7 61/10/7 16/10/7
f 48/11/7 64/11/7 16/10/7
f 68/5/13 67/6/13 42/6/13
f 44/5/13 68/5/13 42/6/13
f 66/46/5 68/5/5 44/5/5
f 35/46/5 66/46/5 44/5/5
f 65/47/8 66/46/8 35/46/8
f 23/47/8 65/47/8 35/46/8
f 67/6/3 65/47/3 23/47/3
f 42/6/3 67/6/3 23/47/3
