# Blender v2.77 (sub 0) OBJ File: ''
# www.blender.org
o Cylinder
v 0.000000 -0.118269 -1.000000
v 0.000000 0.118269 -1.000000
v 0.195090 0.118269 -0.980785
v 0.195090 -0.118269 -0.980785
v 1.000000 -0.118269 -0.000000
v 0.980785 -0.118269 0.195090
v 0.923880 -0.118269 0.382683
v 0.831470 -0.118269 0.555570
v 0.707107 -0.118269 0.707107
v 0.555570 -0.118269 0.831470
v 0.382683 -0.118269 0.923880
v 0.195090 -0.118269 0.980785
v -0.000000 -0.118269 1.000000
v -0.195091 -0.118269 0.980785
v -0.382684 -0.118269 0.923879
v -0.555571 -0.118269 0.831469
v -0.707107 -0.118269 0.707106
v -0.831470 -0.118269 0.555570
v -0.923880 -0.118269 0.382683
v -0.980785 -0.118269 0.195089
v -1.000000 -0.118269 -0.000001
v -0.975807 -0.118269 -0.000001
v -0.957057 -0.118269 0.190370
v -0.901528 -0.118269 0.373424
v -0.811354 -0.118269 0.542129
v -0.690000 -0.118269 0.689999
v -0.542130 -0.118269 0.811353
v -0.373425 -0.118269 0.901528
v -0.190371 -0.118269 0.957057
v -0.000000 -0.118269 0.975807
v 0.190370 -0.118269 0.957057
v 0.373425 -0.118269 0.901528
v 0.542129 -0.118269 0.811354
v 0.689999 -0.118269 0.689999
v 0.811354 -0.118269 0.542129
v 0.901528 -0.118269 0.373425
v 0.957057 -0.118269 0.190370
v 0.975807 -0.118269 -0.000000
v 0.382683 -0.118269 -0.923880
v 0.555570 -0.118269 -0.831470
v 0.707107 -0.118269 -0.707107
v 0.831470 -0.118269 -0.555570
v 0.923880 -0.118269 -0.382683
v 0.980785 -0.118269 -0.195090
v 0.957057 -0.118269 -0.190370
v 0.901528 -0.118269 -0.373425
v 0.811354 -0.118269 -0.542129
v 0.689999 -0.118269 -0.689999
v 0.542129 -0.118269 -0.811354
v 0.373425 -0.118269 -0.901528
v 0.190370 -0.118269 -0.957057
v 0.000000 -0.118269 -0.975807
v -0.190369 -0.118269 -0.957057
v -0.373424 -0.118269 -0.901528
v -0.542128 -0.118269 -0.811354
v -0.689999 -0.118269 -0.690000
v -0.811353 -0.118269 -0.542130
v -0.901527 -0.118269 -0.373426
v -0.957057 -0.118269 -0.190371
v -0.980785 -0.118269 -0.195091
v -0.923879 -0.118269 -0.382684
v -0.831469 -0.118269 -0.555571
v -0.707106 -0.118269 -0.707108
v -0.555569 -0.118269 -0.831470
v -0.382682 -0.118269 -0.923880
v -0.195089 -0.118269 -0.980786
v -0.195089 0.118269 -0.980786
v -0.382682 0.118269 -0.923880
v -0.555569 0.118269 -0.831470
v -0.707106 0.118269 -0.707108
v -0.831469 0.118269 -0.555571
v -0.923879 0.118269 -0.382684
v -0.980785 0.118269 -0.195091
v -1.000000 0.118269 -0.000001
v -0.980785 0.118269 0.195089
v -0.923880 0.118269 0.382683
v -0.831470 0.118269 0.555570
v -0.707107 0.118269 0.707106
v -0.555571 0.118269 0.831469
v -0.382684 0.118269 0.923879
v -0.195091 0.118269 0.980785
v -0.000000 0.118269 1.000000
v -0.000000 0.118269 0.975807
v -0.190371 0.118269 0.957057
v -0.373425 0.118269 0.901528
v -0.542130 0.118269 0.811353
v -0.690000 0.118269 0.689999
v -0.811354 0.118269 0.542129
v -0.901528 0.118269 0.373424
v -0.957057 0.118269 0.190370
v -0.975807 0.118269 -0.000001
v -0.957057 0.118269 -0.190371
v -0.901527 0.118269 -0.373426
v -0.811353 0.118269 -0.542130
v -0.689999 0.118269 -0.690000
v -0.542128 0.118269 -0.811354
v -0.373424 0.118269 -0.901528
v -0.190369 0.118269 -0.957057
v 0.000000 0.118269 -0.975807
v 0.190370 0.118269 -0.957057
v 0.373425 0.118269 -0.901528
v 0.542129 0.118269 -0.811354
v 0.689999 0.118269 -0.689999
v 0.811354 0.118269 -0.542129
v 0.901528 0.118269 -0.373425
v 0.957057 0.118269 -0.190370
v 0.975807 0.118269 -0.000000
v 0.957057 0.118269 0.190370
v 0.901528 0.118269 0.373425
v 0.811354 0.118269 0.542129
v 0.689999 0.118269 0.689999
v 0.542129 0.118269 0.811354
v 0.373425 0.118269 0.901528
v 0.190370 0.118269 0.957057
v 0.195090 0.118269 0.980785
v 0.382683 0.118269 0.923880
v 0.555570 0.118269 0.831470
v 0.707107 0.118269 0.707107
v 0.831470 0.118269 0.555570
v 0.923880 0.118269 0.382683
v 0.980785 0.118269 0.195090
v 1.000000 0.118269 -0.000000
v 0.980785 0.118269 -0.195090
v 0.923880 0.118269 -0.382683
v 0.831470 0.118269 -0.555570
v 0.707107 0.118269 -0.707107
v 0.555570 0.118269 -0.831470
v 0.382683 0.118269 -0.923880
vn 0.0980 0.0000 -0.9952
vn 0.0000 -1.0000 -0.0000
vn -0.0980 0.0000 -0.9952
vn 0.0000 1.0000 -0.0000
vn 0.2903 0.0000 -0.9569
vn 0.4714 0.0000 -0.8819
vn 0.6344 0.0000 -0.7730
vn 0.7730 0.0000 -0.6344
vn 0.8819 0.0000 -0.4714
vn 0.9569 0.0000 -0.2903
vn 0.9952 0.0000 -0.0980
vn 0.9952 0.0000 0.0980
vn 0.9569 0.0000 0.2903
vn 0.8819 0.0000 0.4714
vn 0.7730 0.0000 0.6344
vn 0.6344 0.0000 0.7730
vn 0.4714 0.0000 0.8819
vn 0.2903 0.0000 0.9569
vn 0.0980 0.0000 0.9952
vn -0.0980 0.0000 0.9952
vn -0.2903 0.0000 0.9569
vn -0.4714 0.0000 0.8819
vn -0.6344 0.0000 0.7730
vn -0.7730 0.0000 0.6344
vn -0.8819 0.0000 0.4714
vn -0.9569 0.0000 0.2903
vn -0.9952 0.0000 0.0980
vn -0.9952 0.0000 -0.0980
vn -0.9569 0.0000 -0.2903
vn -0.8819 0.0000 -0.4714
vn -0.7730 0.0000 -0.6344
vn -0.6344 0.0000 -0.7730
vn -0.4714 0.0000 -0.8819
vn -0.2903 0.0000 -0.9569
s off
f 1//1 2//1 3//1 4//1
f 5//2 6//2 7//2 8//2 9//2 10//2 11//2 12//2 13//2 14//2 15//2 16//2 17//2 18//2 19//2 20//2 21//2 22//2 23//2 24//2 25//2 26//2 27//2 28//2 29//2 30//2 31//2 32//2 33//2 34//2 35//2 36//2 37//2 38//2
f 1//2 4//2 39//2 40//2 41//2 42//2 43//2 44//2 5//2 38//2 45//2 46//2 47//2 48//2 49//2 50//2 51//2 52//2 53//2 54//2 55//2 56//2 57//2 58//2 59//2 22//2 21//2 60//2 61//2 62//2 63//2 64//2 65//2 66//2
f 66//3 67//3 2//3 1//3
f 2//4 67//4 68//4 69//4 70//4 71//4 72//4 73//4 74//4 75//4 76//4 77//4 78//4 79//4 80//4 81//4 82//4 83//4 84//4 85//4 86//4 87//4 88//4 89//4 90//4 91//4 92//4 93//4 94//4 95//4 96//4 97//4 98//4 99//4
f 2//4 99//4 100//4 101//4 102//4 103//4 104//4 105//4 106//4 107//4 108//4 109//4 110//4 111//4 112//4 113//4 114//4 83//4 82//4 115//4 116//4 117//4 118//4 119//4 120//4 121//4 122//4 123//4 124//4 125//4 126//4 127//4 128//4 3//4
f 4//5 3//5 128//5 39//5
f 39//6 128//6 127//6 40//6
f 40//7 127//7 126//7 41//7
f 41//8 126//8 125//8 42//8
f 42//9 125//9 124//9 43//9
f 43//10 124//10 123//10 44//10
f 44//11 123//11 122//11 5//11
f 5//12 122//12 121//12 6//12
f 6//13 121//13 120//13 7//13
f 7//14 120//14 119//14 8//14
f 8//15 119//15 118//15 9//15
f 9//16 118//16 117//16 10//16
f 10//17 117//17 116//17 11//17
f 11//18 116//18 115//18 12//18
f 12//19 115//19 82//19 13//19
f 13//20 82//20 81//20 14//20
f 14//21 81//21 80//21 15//21
f 15//22 80//22 79//22 16//22
f 16//23 79//23 78//23 17//23
f 17//24 78//24 77//24 18//24
f 18//25 77//25 76//25 19//25
f 19//26 76//26 75//26 20//26
f 20//27 75//27 74//27 21//27
f 21//28 74//28 73//28 60//28
f 60//29 73//29 72//29 61//29
f 61//30 72//30 71//30 62//30
f 62//31 71//31 70//31 63//31
f 63//32 70//32 69//32 64//32
f 64//33 69//33 68//33 65//33
f 65//34 68//34 67//34 66//34
f 52//20 51//20 100//20 99//20
f 53//19 52//19 99//19 98//19
f 51//21 50//21 101//21 100//21
f 54//18 53//18 98//18 97//18
f 50//22 49//22 102//22 101//22
f 55//17 54//17 97//17 96//17
f 49//23 48//23 103//23 102//23
f 56//16 55//16 96//16 95//16
f 48//24 47//24 104//24 103//24
f 57//15 56//15 95//15 94//15
f 47//25 46//25 105//25 104//25
f 58//14 57//14 94//14 93//14
f 46//26 45//26 106//26 105//26
f 59//13 58//13 93//13 92//13
f 45//27 38//27 107//27 106//27
f 22//12 59//12 92//12 91//12
f 38//28 37//28 108//28 107//28
f 23//11 22//11 91//11 90//11
f 37//29 36//29 109//29 108//29
f 24//10 23//10 90//10 89//10
f 36//30 35//30 110//30 109//30
f 25//9 24//9 89//9 88//9
f 35//31 34//31 111//31 110//31
f 26//8 25//8 88//8 87//8
f 34//32 33//32 112//32 111//32
f 27//7 26//7 87//7 86//7
f 33//33 32//33 113//33 112//33
f 28//6 27//6 86//6 85//6
f 32//34 31//34 114//34 113//34
f 29//5 28//5 85//5 84//5
f 31//3 30//3 83//3 114//3
f 30//1 29//1 84//1 83//1
