# Blender v2.75 (sub 0) OBJ File: ''
# www.blender.org
mtllib ring.mtl
v 0.000000 -0.203503 -1.000000
v 0.000000 0.203503 -1.000000
v 0.195090 0.203503 -0.980785
v 0.195090 -0.203503 -0.980785
v 0.923880 -0.203503 -0.382683
v 0.980785 -0.203503 -0.195090
v 1.000000 -0.203503 -0.000000
v 0.980785 -0.203503 0.195090
v 0.923880 -0.203503 0.382683
v 0.831470 -0.203503 0.555570
v 0.707107 -0.203503 0.707107
v 0.555570 -0.203503 0.831470
v 0.382683 -0.203503 0.923880
v 0.195090 -0.203503 0.980785
v -0.000000 -0.203503 1.000000
v -0.195091 -0.203503 0.980785
v -0.382684 -0.203503 0.923879
v -0.555571 -0.203503 0.831469
v -0.707107 -0.203503 0.707106
v -0.831470 -0.203503 0.555570
v -0.923880 -0.203503 0.382683
v -0.980785 -0.203503 0.195089
v -1.000000 -0.203503 -0.000001
v -0.863333 -0.203503 -0.000001
v -0.846744 -0.203503 0.168427
v -0.797616 -0.203503 0.330383
v -0.717835 -0.203503 0.479641
v -0.610469 -0.203503 0.610468
v -0.479642 -0.203503 0.717835
v -0.330384 -0.203503 0.797615
v -0.168428 -0.203503 0.846744
v -0.000000 -0.203503 0.863333
v 0.168428 -0.203503 0.846744
v 0.330383 -0.203503 0.797616
v 0.479642 -0.203503 0.717835
v 0.610468 -0.203503 0.610468
v 0.717835 -0.203503 0.479642
v 0.797616 -0.203503 0.330383
v 0.846744 -0.203503 0.168428
v 0.382683 -0.203503 -0.923880
v 0.555570 -0.203503 -0.831470
v 0.707107 -0.203503 -0.707107
v 0.831470 -0.203503 -0.555570
v 0.863333 -0.203503 -0.000000
v 0.846744 -0.203503 -0.168428
v 0.797615 -0.203503 -0.330383
v 0.717835 -0.203503 -0.479642
v 0.610468 -0.203503 -0.610468
v 0.479642 -0.203503 -0.717835
v 0.330383 -0.203503 -0.797615
v 0.168428 -0.203503 -0.846744
v 0.000000 -0.203503 -0.863333
v -0.168427 -0.203503 -0.846744
v -0.330382 -0.203503 -0.797616
v -0.479641 -0.203503 -0.717836
v -0.610468 -0.203503 -0.610469
v -0.717834 -0.203503 -0.479643
v -0.797615 -0.203503 -0.330384
v -0.846744 -0.203503 -0.168429
v -0.980785 -0.203503 -0.195091
v -0.923879 -0.203503 -0.382684
v -0.831469 -0.203503 -0.555571
v -0.707106 -0.203503 -0.707108
v -0.555569 -0.203503 -0.831470
v -0.382682 -0.203503 -0.923880
v -0.195089 -0.203503 -0.980786
v -0.195089 0.203503 -0.980786
v -0.382682 0.203503 -0.923880
v -0.555569 0.203503 -0.831470
v -0.707106 0.203503 -0.707108
v -0.831469 0.203503 -0.555571
v -0.923879 0.203503 -0.382684
v -0.980785 0.203503 -0.195091
v -1.000000 0.203503 -0.000001
v -0.980785 0.203503 0.195089
v -0.923880 0.203503 0.382683
v -0.831470 0.203503 0.555570
v -0.707107 0.203503 0.707106
v -0.555571 0.203503 0.831469
v -0.382684 0.203503 0.923879
v -0.195091 0.203503 0.980785
v -0.000000 0.203503 1.000000
v -0.000000 0.203503 0.863333
v -0.168428 0.203503 0.846744
v -0.330384 0.203503 0.797615
v -0.479642 0.203503 0.717835
v -0.610469 0.203503 0.610468
v -0.717835 0.203503 0.479641
v -0.797616 0.203503 0.330383
v -0.846744 0.203503 0.168427
v -0.863333 0.203503 -0.000001
v -0.846744 0.203503 -0.168429
v -0.797615 0.203503 -0.330384
v -0.717834 0.203503 -0.479643
v -0.610468 0.203503 -0.610469
v -0.479641 0.203503 -0.717836
v -0.330382 0.203503 -0.797616
v -0.168427 0.203503 -0.846744
v 0.000000 0.203503 -0.863333
v 0.168428 0.203503 -0.846744
v 0.330383 0.203503 -0.797615
v 0.479642 0.203503 -0.717835
v 0.610468 0.203503 -0.610468
v 0.717835 0.203503 -0.479642
v 0.797615 0.203503 -0.330383
v 0.846744 0.203503 -0.168428
v 0.863333 0.203503 -0.000000
v 0.846744 0.203503 0.168428
v 0.797616 0.203503 0.330383
v 0.717835 0.203503 0.479642
v 0.610468 0.203503 0.610468
v 0.479642 0.203503 0.717835
v 0.330383 0.203503 0.797616
v 0.168428 0.203503 0.846744
v 0.195090 0.203503 0.980785
v 0.382683 0.203503 0.923880
v 0.555570 0.203503 0.831470
v 0.707107 0.203503 0.707107
v 0.831470 0.203503 0.555570
v 0.923880 0.203503 0.382683
v 0.980785 0.203503 0.195090
v 1.000000 0.203503 -0.000000
v 0.980785 0.203503 -0.195090
v 0.923880 0.203503 -0.382683
v 0.831470 0.203503 -0.555570
v 0.707107 0.203503 -0.707107
v 0.555570 0.203503 -0.831470
v 0.382683 0.203503 -0.923880
vt 0.484936 0.000000
vt 0.517521 0.000000
vt 0.517521 0.333333
vt 0.248549 0.644579
vt 0.217855 0.657082
vt 0.211132 0.635285
vt 0.152048 0.331728
vt 0.185271 0.331728
vt 0.154318 0.354396
vt 0.451713 0.000000
vt 0.484936 0.333333
vt 0.000000 0.149528
vt 0.006481 0.117483
vt 0.028646 0.124096
vt 0.308673 0.207633
vt 0.314268 0.179968
vt 0.337319 0.182200
vt 0.548215 0.000000
vt 0.548215 0.333333
vt 0.575839 0.000000
vt 0.575839 0.333333
vt 0.599331 0.000000
vt 0.599331 0.333333
vt 0.814359 0.666667
vt 0.786735 0.666667
vt 0.786735 0.333333
vt 0.756041 0.666667
vt 0.756041 0.333333
vt 0.723457 0.666667
vt 0.723457 0.333333
vt 0.690234 0.666667
vt 0.690234 0.333333
vt 0.657649 0.666667
vt 0.657649 0.333333
vt 0.626955 0.666667
vt 0.626955 0.333333
vt 0.599331 0.666667
vt 0.575839 0.666667
vt 0.337319 0.333333
vt 0.364942 0.333333
vt 0.364942 0.666667
vt 0.395636 0.333333
vt 0.395637 0.666667
vt 0.428221 0.333333
vt 0.428221 0.666667
vt 0.461444 0.333333
vt 0.461444 0.666667
vt 0.494029 0.333333
vt 0.494029 0.666667
vt 0.524723 0.333333
vt 0.524723 0.666667
vt 0.552347 0.333333
vt 0.552347 0.666667
vt 0.000000 0.663456
vt 0.027624 0.663456
vt 0.027624 0.996790
vt 0.058318 0.663456
vt 0.058318 0.996790
vt 0.090903 0.663456
vt 0.090903 0.996790
vt 0.124126 0.663456
vt 0.124126 0.996790
vt 0.156710 0.663456
vt 0.156710 0.996790
vt 0.187404 0.663456
vt 0.187404 0.996790
vt 0.215028 0.663456
vt 0.215028 0.996790
vt 0.337319 0.000000
vt 0.360811 0.000000
vt 0.360811 0.333333
vt 0.388435 0.000000
vt 0.388435 0.333333
vt 0.419129 0.000000
vt 0.419129 0.333333
vt 0.451713 0.333333
vt 0.754905 0.000000
vt 0.754905 0.333333
vt 0.726774 0.333333
vt 0.726774 0.000000
vt 0.698092 0.333333
vt 0.781405 0.000000
vt 0.781405 0.333333
vt 0.698092 0.000000
vt 0.669960 0.333333
vt 0.805253 0.000000
vt 0.805253 0.333333
vt 0.669960 0.000000
vt 0.643461 0.333333
vt 0.825535 0.000000
vt 0.825535 0.333333
vt 0.643461 0.000000
vt 0.619613 0.333333
vt 0.725315 1.000000
vt 0.725315 0.666667
vt 0.749163 0.666667
vt 0.619613 0.000000
vt 0.698816 1.000000
vt 0.698816 0.666667
vt 0.543241 0.666667
vt 0.543241 1.000000
vt 0.519392 1.000000
vt 0.670684 1.000000
vt 0.670684 0.666667
vt 0.519392 0.666667
vt 0.492893 1.000000
vt 0.642002 1.000000
vt 0.642002 0.666667
vt 0.492893 0.666667
vt 0.464762 1.000000
vt 0.613870 1.000000
vt 0.613870 0.666667
vt 0.464762 0.666667
vt 0.436079 1.000000
vt 0.587371 1.000000
vt 0.587371 0.666667
vt 0.436079 0.666667
vt 0.407948 1.000000
vt 0.563523 1.000000
vt 0.563523 0.666667
vt 0.407948 0.666667
vt 0.381449 1.000000
vt 0.381449 0.666667
vt 0.357600 1.000000
vt 0.838208 0.333333
vt 0.838208 0.666667
vt 0.357600 0.666667
vt 0.337319 1.000000
vt 0.864707 0.333333
vt 0.864707 0.666667
vt 1.000000 0.333333
vt 1.000000 0.666667
vt 0.976151 0.666667
vt 0.892838 0.333333
vt 0.892838 0.666667
vt 0.976151 0.333333
vt 0.949652 0.666667
vt 0.921521 0.333333
vt 0.921521 0.666667
vt 0.949652 0.333333
vt 0.006481 0.545973
vt 0.028646 0.539361
vt 0.039622 0.565421
vt 0.314268 0.483489
vt 0.299665 0.391860
vt 0.318123 0.419026
vt 0.019195 0.576158
vt 0.055557 0.588874
vt 0.330837 0.449211
vt 0.037653 0.603324
vt 0.075839 0.608820
vt 0.337319 0.481256
vt 0.314268 0.511696
vt 0.061145 0.626427
vt 0.099687 0.624491
vt 0.337319 0.513928
vt 0.308673 0.539361
vt 0.088769 0.644579
vt 0.126187 0.635285
vt 0.330837 0.545973
vt 0.297696 0.565421
vt 0.119463 0.657082
vt 0.154318 0.640788
vt 0.318123 0.576158
vt 0.281761 0.588874
vt 0.152048 0.663456
vt 0.183000 0.640788
vt 0.299665 0.603324
vt 0.261480 0.608820
vt 0.185271 0.663456
vt 0.276173 0.626427
vt 0.237631 0.624491
vt 0.126187 0.359899
vt 0.088769 0.350605
vt 0.119463 0.338102
vt 0.075839 0.386365
vt 0.037653 0.391860
vt 0.061145 0.368757
vt 0.039622 0.429763
vt 0.006482 0.449211
vt 0.019195 0.419026
vt 0.023050 0.483489
vt 0.000000 0.513928
vt 0.000000 0.481256
vt 0.023050 0.511696
vt 0.308673 0.455824
vt 0.297696 0.429764
vt 0.281761 0.406310
vt 0.028646 0.455823
vt 0.261480 0.386365
vt 0.276173 0.368757
vt 0.237631 0.370694
vt 0.248549 0.350605
vt 0.211132 0.359899
vt 0.055557 0.406310
vt 0.217855 0.338102
vt 0.183000 0.354396
vt 0.099688 0.370694
vt 0.126187 0.303557
vt 0.119463 0.325354
vt 0.217855 0.006374
vt 0.211132 0.028171
vt 0.183000 0.022668
vt 0.154318 0.309060
vt 0.185271 0.000000
vt 0.154318 0.022668
vt 0.099688 0.292763
vt 0.152048 0.000000
vt 0.126187 0.028171
vt 0.088769 0.312851
vt 0.075839 0.277092
vt 0.119463 0.006374
vt 0.099687 0.038966
vt 0.061145 0.294699
vt 0.055557 0.257146
vt 0.088769 0.018877
vt 0.075839 0.054637
vt 0.037653 0.271596
vt 0.039622 0.233693
vt 0.061145 0.037029
vt 0.055557 0.074582
vt 0.019195 0.244430
vt 0.028646 0.207633
vt 0.037653 0.060132
vt 0.039622 0.098035
vt 0.006482 0.214245
vt 0.023050 0.179968
vt 0.019195 0.087298
vt 0.000000 0.182200
vt 0.023050 0.151761
vt 0.183001 0.309060
vt 0.237631 0.292763
vt 0.248549 0.312851
vt 0.217855 0.325354
vt 0.281761 0.257146
vt 0.299665 0.271596
vt 0.276173 0.294699
vt 0.330837 0.214245
vt 0.318123 0.244430
vt 0.337319 0.149528
vt 0.308673 0.124095
vt 0.318123 0.087298
vt 0.330837 0.117483
vt 0.281761 0.074582
vt 0.276173 0.037029
vt 0.299665 0.060132
vt 0.248549 0.018877
vt 0.237631 0.038966
vt 0.211132 0.303557
vt 0.261480 0.054637
vt 0.261480 0.277092
vt 0.297696 0.098035
vt 0.297696 0.233693
vt 0.314268 0.151761
vt 0.814359 0.333333
vt 0.337319 0.666667
vt 0.000000 0.996790
vt 0.749163 1.000000
vn 0.098000 0.000000 -0.995200
vn 0.000000 -1.000000 0.000000
vn -0.098000 0.000000 -0.995200
vn 0.000000 1.000000 0.000000
vn 0.290300 0.000000 -0.956900
vn 0.471400 0.000000 -0.881900
vn 0.634400 0.000000 -0.773000
vn 0.773000 0.000000 -0.634400
vn 0.881900 0.000000 -0.471400
vn 0.956900 0.000000 -0.290300
vn 0.995200 0.000000 -0.098000
vn 0.995200 0.000000 0.098000
vn 0.956900 0.000000 0.290300
vn 0.881900 0.000000 0.471400
vn 0.773000 0.000000 0.634400
vn 0.634400 0.000000 0.773000
vn 0.471400 0.000000 0.881900
vn 0.290300 0.000000 0.956900
vn 0.098000 0.000000 0.995200
vn -0.098000 0.000000 0.995200
vn -0.290300 0.000000 0.956900
vn -0.471400 0.000000 0.881900
vn -0.634400 0.000000 0.773000
vn -0.773000 0.000000 0.634400
vn -0.881900 0.000000 0.471400
vn -0.956900 0.000000 0.290300
vn -0.995200 0.000000 0.098000
vn -0.995200 0.000000 -0.098000
vn -0.956900 0.000000 -0.290300
vn -0.881900 0.000000 -0.471400
vn -0.773000 0.000000 -0.634400
vn -0.634400 0.000000 -0.773000
vn -0.471400 0.000000 -0.881900
vn -0.290300 0.000000 -0.956900
usemtl None
s off
f 2/1/1 3/2/1 4/3/1
f 14/4/2 15/5/2 32/6/2
f 4/7/2 40/8/2 51/9/2
f 67/10/3 2/1/3 1/11/3
f 73/12/4 74/13/4 91/14/4
f 107/15/4 108/16/4 121/17/4
f 3/2/5 128/18/5 40/19/5
f 128/18/6 127/20/6 41/21/6
f 127/20/7 126/22/7 42/23/7
f 126/24/8 125/25/8 43/26/8
f 125/25/9 124/27/9 5/28/9
f 124/27/10 123/29/10 6/30/10
f 123/29/11 122/31/11 7/32/11
f 122/31/12 121/33/12 8/34/12
f 121/33/13 120/35/13 9/36/13
f 120/35/14 119/37/14 10/23/14
f 119/37/15 118/38/15 11/21/15
f 118/39/16 117/40/16 12/41/16
f 117/40/17 116/42/17 13/43/17
f 116/42/18 115/44/18 14/45/18
f 115/44/19 82/46/19 15/47/19
f 82/46/20 81/48/20 16/49/20
f 81/48/21 80/50/21 17/51/21
f 80/50/22 79/52/22 18/53/22
f 79/52/23 78/21/23 19/38/23
f 78/54/24 77/55/24 20/56/24
f 77/55/25 76/57/25 21/58/25
f 76/57/26 75/59/26 22/60/26
f 75/59/27 74/61/27 23/62/27
f 74/61/28 73/63/28 60/64/28
f 73/63/29 72/65/29 61/66/29
f 72/65/30 71/67/30 62/68/30
f 71/69/31 70/70/31 63/71/31
f 70/70/32 69/72/32 64/73/32
f 69/72/33 68/74/33 65/75/33
f 68/74/34 67/10/34 66/76/34
f 51/77/20 100/78/20 99/79/20
f 52/80/19 99/79/19 98/81/19
f 50/82/21 101/83/21 100/78/21
f 53/84/18 98/81/18 97/85/18
f 49/86/22 102/87/22 101/83/22
f 54/88/17 97/85/17 96/89/17
f 48/90/23 103/91/23 102/87/23
f 55/92/16 96/89/16 95/93/16
f 47/94/24 104/95/24 103/96/24
f 56/97/15 95/93/15 94/23/15
f 46/98/25 105/99/25 104/95/25
f 57/100/14 94/101/14 93/102/14
f 45/103/26 106/104/26 105/99/26
f 58/105/13 93/102/13 92/106/13
f 44/107/27 107/108/27 106/104/27
f 59/109/12 92/106/12 91/110/12
f 39/111/28 108/112/28 107/108/28
f 24/113/11 91/110/11 90/114/11
f 38/115/29 109/116/29 108/112/29
f 25/117/10 90/114/10 89/118/10
f 37/119/30 110/120/30 109/116/30
f 26/121/9 89/118/9 88/122/9
f 36/101/31 111/100/31 110/120/31
f 27/123/8 88/122/8 87/124/8
f 35/125/32 112/126/32 111/24/32
f 28/127/7 87/124/7 86/128/7
f 34/129/33 113/130/33 112/126/33
f 29/131/6 86/132/6 85/133/6
f 33/134/34 114/135/34 113/130/34
f 30/136/5 85/133/5 84/137/5
f 32/138/3 83/139/3 114/135/3
f 31/140/1 84/137/1 83/139/1
f 1/11/1 2/1/1 4/3/1
f 23/141/2 24/142/2 25/143/2
f 39/144/2 5/145/2 6/146/2
f 22/147/2 25/143/2 26/148/2
f 7/149/2 39/144/2 6/146/2
f 21/150/2 26/148/2 27/151/2
f 8/152/2 39/144/2 7/149/2
f 22/147/2 23/141/2 25/143/2
f 8/152/2 38/153/2 39/144/2
f 20/154/2 27/151/2 28/155/2
f 9/156/2 38/153/2 8/152/2
f 21/150/2 22/147/2 26/148/2
f 9/156/2 37/157/2 38/153/2
f 19/158/2 28/155/2 29/159/2
f 10/160/2 37/157/2 9/156/2
f 20/154/2 21/150/2 27/151/2
f 10/160/2 36/161/2 37/157/2
f 18/162/2 29/159/2 30/163/2
f 11/164/2 36/161/2 10/160/2
f 19/158/2 20/154/2 28/155/2
f 11/164/2 35/165/2 36/161/2
f 17/166/2 30/163/2 31/167/2
f 12/168/2 35/165/2 11/164/2
f 18/162/2 19/158/2 29/159/2
f 12/168/2 34/169/2 35/165/2
f 16/170/2 31/167/2 32/6/2
f 13/171/2 34/169/2 12/168/2
f 17/166/2 18/162/2 30/163/2
f 13/171/2 33/172/2 34/169/2
f 33/172/2 13/171/2 14/4/2
f 32/6/2 15/5/2 16/170/2
f 16/170/2 17/166/2 31/167/2
f 32/6/2 33/172/2 14/4/2
f 52/173/2 66/174/2 1/175/2
f 54/176/2 64/177/2 65/178/2
f 56/179/2 62/180/2 63/181/2
f 58/182/2 60/183/2 61/184/2
f 59/185/2 24/142/2 23/141/2
f 5/145/2 39/144/2 44/186/2
f 60/183/2 59/185/2 23/141/2
f 5/145/2 44/186/2 45/187/2
f 60/183/2 58/182/2 59/185/2
f 5/145/2 45/187/2 46/188/2
f 57/189/2 58/182/2 61/184/2
f 5/145/2 46/188/2 47/190/2
f 62/180/2 57/189/2 61/184/2
f 43/191/2 47/190/2 48/192/2
f 62/180/2 56/179/2 57/189/2
f 42/193/2 48/192/2 49/194/2
f 55/195/2 56/179/2 63/181/2
f 43/191/2 5/145/2 47/190/2
f 64/177/2 55/195/2 63/181/2
f 41/196/2 49/194/2 50/197/2
f 64/177/2 54/176/2 55/195/2
f 42/193/2 43/191/2 48/192/2
f 53/198/2 54/176/2 65/178/2
f 40/8/2 50/197/2 51/9/2
f 66/174/2 53/198/2 65/178/2
f 41/196/2 42/193/2 49/194/2
f 66/174/2 52/173/2 53/198/2
f 51/9/2 1/175/2 4/7/2
f 50/197/2 40/8/2 41/196/2
f 1/175/2 51/9/2 52/173/2
f 66/76/3 67/10/3 1/11/3
f 99/199/4 3/7/4 2/200/4
f 82/201/4 83/202/4 84/203/4
f 99/199/4 100/204/4 3/7/4
f 81/205/4 84/203/4 85/206/4
f 98/207/4 99/199/4 2/200/4
f 80/208/4 85/206/4 86/209/4
f 67/210/4 98/207/4 2/200/4
f 81/205/4 82/201/4 84/203/4
f 67/210/4 97/211/4 98/207/4
f 79/212/4 86/209/4 87/213/4
f 68/214/4 97/211/4 67/210/4
f 80/208/4 81/205/4 85/206/4
f 68/214/4 96/215/4 97/211/4
f 78/216/4 87/213/4 88/217/4
f 69/218/4 96/215/4 68/214/4
f 79/212/4 80/208/4 86/209/4
f 69/218/4 95/219/4 96/215/4
f 77/220/4 88/217/4 89/221/4
f 70/222/4 95/219/4 69/218/4
f 78/216/4 79/212/4 87/213/4
f 70/222/4 94/223/4 95/219/4
f 76/224/4 89/221/4 90/225/4
f 71/226/4 94/223/4 70/222/4
f 77/220/4 78/216/4 88/217/4
f 71/226/4 93/227/4 94/223/4
f 75/228/4 90/225/4 91/14/4
f 72/229/4 93/227/4 71/226/4
f 76/224/4 77/220/4 89/221/4
f 72/229/4 92/230/4 93/227/4
f 92/230/4 72/229/4 73/12/4
f 91/14/4 74/13/4 75/228/4
f 75/228/4 76/224/4 90/225/4
f 91/14/4 92/230/4 73/12/4
f 101/231/4 128/8/4 3/7/4
f 103/232/4 126/233/4 127/234/4
f 105/235/4 124/236/4 125/237/4
f 107/15/4 122/238/4 123/239/4
f 108/16/4 120/240/4 121/17/4
f 110/241/4 118/242/4 119/243/4
f 112/244/4 116/245/4 117/246/4
f 83/202/4 82/201/4 115/247/4
f 3/7/4 100/204/4 101/231/4
f 114/248/4 83/202/4 115/247/4
f 128/8/4 101/231/4 102/249/4
f 113/250/4 114/248/4 115/247/4
f 127/234/4 102/249/4 103/232/4
f 116/245/4 113/250/4 115/247/4
f 127/234/4 128/8/4 102/249/4
f 116/245/4 112/244/4 113/250/4
f 126/233/4 103/232/4 104/251/4
f 111/252/4 112/244/4 117/246/4
f 125/237/4 104/251/4 105/235/4
f 118/242/4 111/252/4 117/246/4
f 125/237/4 126/233/4 104/251/4
f 118/242/4 110/241/4 111/252/4
f 124/236/4 105/235/4 106/253/4
f 109/254/4 110/241/4 119/243/4
f 123/239/4 106/253/4 107/15/4
f 120/240/4 109/254/4 119/243/4
f 123/239/4 124/236/4 106/253/4
f 120/240/4 108/16/4 109/254/4
f 107/15/4 121/17/4 122/238/4
f 4/3/5 3/2/5 40/19/5
f 40/19/6 128/18/6 41/21/6
f 41/21/7 127/20/7 42/23/7
f 42/255/8 126/24/8 43/26/8
f 43/26/9 125/25/9 5/28/9
f 5/28/10 124/27/10 6/30/10
f 6/30/11 123/29/11 7/32/11
f 7/32/12 122/31/12 8/34/12
f 8/34/13 121/33/13 9/36/13
f 9/36/14 120/35/14 10/23/14
f 10/23/15 119/37/15 11/21/15
f 11/256/16 118/39/16 12/41/16
f 12/41/17 117/40/17 13/43/17
f 13/43/18 116/42/18 14/45/18
f 14/45/19 115/44/19 15/47/19
f 15/47/20 82/46/20 16/49/20
f 16/49/21 81/48/21 17/51/21
f 17/51/22 80/50/22 18/53/22
f 18/53/23 79/52/23 19/38/23
f 19/257/24 78/54/24 20/56/24
f 20/56/25 77/55/25 21/58/25
f 21/58/26 76/57/26 22/60/26
f 22/60/27 75/59/27 23/62/27
f 23/62/28 74/61/28 60/64/28
f 60/64/29 73/63/29 61/66/29
f 61/66/30 72/65/30 62/68/30
f 62/39/31 71/69/31 63/71/31
f 63/71/32 70/70/32 64/73/32
f 64/73/33 69/72/33 65/75/33
f 65/75/34 68/74/34 66/76/34
f 52/80/20 51/77/20 99/79/20
f 53/84/19 52/80/19 98/81/19
f 51/77/21 50/82/21 100/78/21
f 54/88/18 53/84/18 97/85/18
f 50/82/22 49/86/22 101/83/22
f 55/92/17 54/88/17 96/89/17
f 49/86/23 48/90/23 102/87/23
f 56/97/16 55/92/16 95/93/16
f 48/258/24 47/94/24 103/96/24
f 57/22/15 56/97/15 94/23/15
f 47/94/25 46/98/25 104/95/25
f 58/105/14 57/100/14 93/102/14
f 46/98/26 45/103/26 105/99/26
f 59/109/13 58/105/13 92/106/13
f 45/103/27 44/107/27 106/104/27
f 24/113/12 59/109/12 91/110/12
f 44/107/28 39/111/28 107/108/28
f 25/117/11 24/113/11 90/114/11
f 39/111/29 38/115/29 108/112/29
f 26/121/10 25/117/10 89/118/10
f 38/115/30 37/119/30 109/116/30
f 27/123/9 26/121/9 88/122/9
f 37/119/31 36/101/31 110/120/31
f 28/127/8 27/123/8 87/124/8
f 36/255/32 35/125/32 111/24/32
f 29/256/7 28/127/7 86/128/7
f 35/125/33 34/129/33 112/126/33
f 30/136/6 29/131/6 85/133/6
f 34/129/34 33/134/34 113/130/34
f 31/140/5 30/136/5 84/137/5
f 33/134/3 32/138/3 114/135/3
f 32/138/1 31/140/1 83/139/1
